<svg width="400" height="120" viewBox="0 0 400 120" fill="none" xmlns="http://www.w3.org/2000/svg">
  <!-- Background Circle -->
  <circle cx="60" cy="60" r="50" fill="#059669" opacity="0.1"/>
  
  <!-- Main MM Logo -->
  <g transform="translate(20, 30)">
    <!-- First M -->
    <path d="M5 10 L5 50 L12 50 L12 25 L20 40 L22 40 L30 25 L30 50 L37 50 L37 10 L30 10 L21 35 L12 10 Z" fill="#059669"/>
    <!-- Second M -->
    <path d="M45 10 L45 50 L52 50 L52 25 L60 40 L62 40 L70 25 L70 50 L77 50 L77 10 L70 10 L61 35 L52 10 Z" fill="#059669"/>
    <!-- Decorative elements -->
    <circle cx="10" cy="15" r="1.5" fill="#10B981" opacity="0.6"/>
    <circle cx="75" cy="15" r="1.5" fill="#10B981" opacity="0.6"/>
    <circle cx="10" cy="45" r="1.5" fill="#10B981" opacity="0.6"/>
    <circle cx="75" cy="45" r="1.5" fill="#10B981" opacity="0.6"/>
  </g>
  
  <!-- Text: MacroMinds -->
  <text x="140" y="45" font-family="Arial, sans-serif" font-size="28" font-weight="bold" fill="#059669">MacroMinds</text>
  
  <!-- Tagline -->
  <text x="140" y="75" font-family="Arial, sans-serif" font-size="12" fill="#6B7280" letter-spacing="1px">IDEAS BEYOND TRENDS</text>
  
  <!-- Decorative line -->
  <line x1="140" y1="55" x2="340" y2="55" stroke="#10B981" stroke-width="2" opacity="0.3"/>
</svg>
